<?xml version="1.0" encoding="utf-8"?>
<!-- Generator: Adobe Illustrator 26.3.1, SVG Export Plug-In . SVG Version: 6.00 Build 0)  -->
<svg version="1.1" id="Laag_1" xmlns="http://www.w3.org/2000/svg" xmlns:xlink="http://www.w3.org/1999/xlink" x="0px" y="0px"
	 viewBox="0 0 1692.19 1146.37" style="enable-background:new 0 0 1692.19 1146.37;" xml:space="preserve">
<style type="text/css">
	.st0{fill:#F18700;}
	.st1{fill:#EC6608;}
	.st2{fill:#1F080A;}
</style>
<g>
</g>
<g>
	<g>
		<path d="M603.28,662.03v-299.2h28.44l84.96,198.73V362.83h34.72v299.2h-26.6l-86.07-204.27v204.27H603.28z"/>
		<path d="M788.34,662.03l5.54-299.2h41l52.82,242.69l53.19-242.69h40.63l5.54,299.2h-33.61l-3.32-217.2l-50.61,217.2h-23.64
			l-50.24-217.2l-3.32,217.2H788.34z"/>
		<path d="M1100.84,665.35c-21.67,0-38.29-4.31-49.87-12.93c-11.58-8.62-19.46-20.74-23.64-36.38c-4.19-15.64-6.28-33.92-6.28-54.85
			V362.83h39.89v200.21c0,12.81,0.86,24.51,2.59,35.09c1.72,10.59,5.48,18.97,11.27,25.12c5.78,6.16,14.46,9.23,26.04,9.23
			c11.82,0,20.56-3.08,26.23-9.23c5.66-6.15,9.36-14.53,11.08-25.12c1.72-10.59,2.59-22.28,2.59-35.09V362.83h39.52v198.36
			c0,20.93-2.1,39.22-6.28,54.85c-4.19,15.64-12,27.77-23.46,36.38C1139.07,661.05,1122.5,665.35,1100.84,665.35z"/>
		<path d="M1247.85,662.03V393.86h-50.61v-31.03h141.48v31.03h-49.13v268.17H1247.85z"/>
		<path d="M1358.3,662.03v-299.2h115.99v31.03h-74.25v99h60.21v29.55h-60.21v109.71h74.99v29.92H1358.3z"/>
		<path d="M1499.4,662.03v-299.2h65.01c22.16,0,39.71,3.39,52.64,10.16c12.93,6.78,22.16,16.93,27.7,30.47
			c5.54,13.55,8.31,30.42,8.31,50.61v110.08c0,21.18-2.77,39.03-8.31,53.56c-5.54,14.53-14.53,25.55-26.96,33.06
			c-12.44,7.51-29.12,11.27-50.05,11.27H1499.4z M1541.14,632.11h23.64c15.27,0,26.1-2.96,32.51-8.87
			c6.4-5.91,10.28-14.53,11.64-25.86c1.35-11.32,2.03-24.99,2.03-41v-97.15c0-15.51-0.99-28.07-2.96-37.68
			c-1.97-9.6-6.28-16.62-12.93-21.06c-6.65-4.43-17.12-6.65-31.4-6.65h-22.53V632.11z"/>
	</g>
</g>
<g>
	<path d="M344.87,978.62V873.4h-66.52v105.22c-71.88,2.43-125.81,12.59-125.81,24.75c0,13.98,71.22,25.31,159.07,25.31
		s159.07-11.33,159.07-25.31C470.68,991.21,416.75,981.05,344.87,978.62z"/>
	<path d="M487.86,359.53v253.34c0,85.9-82.36,161.24-176.26,161.24c-93.89,0-176.26-75.35-176.26-161.24V359.53H67.84v253.34
		c0,60.92,26.9,118.78,75.74,162.93c37.8,34.16,85.57,56.41,134.77,63.43l0,0l66.52,0l0,0c49.2-7.02,96.97-29.27,134.77-63.43
		c48.84-44.15,75.74-102.01,75.74-162.93V359.53H487.86z"/>
</g>
<g>
	<path class="st0" d="M320.2,11.69h-19.98C220.9,11.69,156,76.59,156,155.91v451.06c0,79.32,64.9,144.22,144.22,144.22h19.98
		c79.32,0,144.22-64.9,144.22-144.22V155.91C464.42,76.59,399.52,11.69,320.2,11.69z"/>
	<path class="st1" d="M155.93,370.86L156,155.91c0-79.32,64.9-144.22,144.22-144.22h19.98c79.32,0,144.22,64.9,144.22,144.22v220.87
		"/>
	<path class="st2" d="M155.97,372.49c0,0,133.91,73.48,308.44,5.8l0.06-36.05c0,0-141.39,72.07-308.46-0.59L155.97,372.49z"/>
</g>
<path class="st0" d="M470.68,1051.86c0,13.98-71.22,35.31-159.07,35.31s-159.07-21.34-159.07-35.31v-52.54
	c0,13.98,71.22,25.31,159.07,25.31s159.07-11.33,159.07-25.31V1051.86z"/>
<circle class="st2" cx="195.39" cy="430.64" r="25.92"/>
<circle class="st2" cx="257.26" cy="442.67" r="25.92"/>
<g>
	<path class="st2" d="M315.85,724.3c-18.64,0-33.76-15.11-33.76-33.76s15.11-33.76,33.76-33.76c28.93,0,52.47-23.54,52.47-52.47
		c0-18.64,15.11-33.76,33.76-33.76c18.64,0,33.76,15.11,33.76,33.76C435.83,670.48,382,724.3,315.85,724.3z"/>
	<path class="st1" d="M319.51,724.3c0,0-4.44-37.18,8.21-38.04c12.65-0.87,19.19,15.03,26.05,9.11c6.86-5.92,1.88-25.55,16.96-17.5
		c15.08,8.05,14.38,24.44,14.38,24.44S359.58,722.98,319.51,724.3z"/>
</g>
</svg>
